<?xml version="1.0" standalone="no"?>
<!DOCTYPE svg PUBLIC "-//W3C//DTD SVG 20010904//EN"
 "http://www.w3.org/TR/2001/REC-SVG-20010904/DTD/svg10.dtd">
<svg version="1.0" xmlns="http://www.w3.org/2000/svg"
 width="2416.000000pt" height="1099.000000pt" viewBox="0 0 2416.000000 1099.000000"
 preserveAspectRatio="xMidYMid meet">

<g transform="translate(0.000000,1099.000000) scale(0.100000,-0.100000)"
fill="#000000" stroke="none">
<path d="M15840 6453 c-219 -22 -470 -121 -653 -256 -159 -117 -320 -306 -415
-489 -55 -107 -116 -295 -137 -427 -21 -125 -16 -373 10 -491 94 -430 372
-792 748 -975 434 -211 930 -170 1324 108 289 205 485 511 565 881 31 143 30
388 0 533 -60 278 -177 503 -365 700 -119 124 -235 210 -382 283 -219 109
-469 157 -695 133z m310 -170 c279 -91 506 -409 596 -837 35 -167 44 -467 20
-636 -71 -484 -294 -839 -601 -956 -85 -32 -235 -44 -323 -24 -325 71 -589
432 -673 919 -85 500 35 1019 308 1330 184 208 431 283 673 204z"/>
<path d="M2362 6348 l3 -73 47 -7 c97 -13 179 -74 230 -170 l23 -43 5 -785 c6
-777 6 -786 28 -865 78 -273 268 -504 517 -625 152 -74 240 -94 415 -94 175 0
263 20 415 94 237 115 410 314 494 566 16 49 34 124 40 167 7 50 11 344 11
800 l0 722 24 51 c47 102 129 167 227 181 l54 8 0 70 0 70 -377 3 -378 2 0
-75 0 -75 38 0 c54 0 154 -52 192 -100 17 -21 40 -59 51 -84 20 -45 20 -63 19
-823 -1 -830 0 -822 -51 -939 -29 -68 -100 -165 -161 -219 -69 -60 -194 -121
-288 -141 -97 -21 -249 -14 -340 15 -188 60 -346 217 -413 411 -22 65 -22 68
-25 849 -3 886 -7 840 75 931 54 60 109 90 178 99 l50 6 0 70 0 70 -553 3
-553 2 3 -72z"/>
<path d="M6924 6407 c-3 -8 -4 -41 -2 -73 l3 -59 48 -7 c100 -14 188 -82 231
-178 l26 -58 -2 -974 -3 -973 -25 -48 c-46 -92 -135 -154 -242 -172 l-38 -6 0
-69 0 -70 380 0 380 0 0 69 c0 73 -6 80 -66 81 -27 0 -112 45 -146 77 -14 14
-41 53 -60 87 l-33 61 -3 863 c-2 734 -1 862 11 862 13 0 306 -431 1215 -1782
l213 -318 325 0 324 0 0 70 0 69 -37 6 c-81 13 -128 37 -185 95 -95 96 -89 20
-86 1131 l3 964 23 42 c51 97 130 157 223 170 l54 8 3 73 3 72 -383 -2 -383
-3 0 -70 0 -70 54 -7 c63 -10 143 -50 177 -91 14 -17 37 -53 52 -81 l27 -51 3
-862 c2 -695 0 -863 -10 -863 -7 0 -36 35 -64 78 -29 42 -347 514 -707 1047
l-655 970 -321 3 c-265 2 -322 0 -327 -11z"/>
<path d="M19340 6347 l0 -74 51 -6 c90 -11 177 -77 224 -171 l25 -50 0 -973
c0 -1075 5 -998 -65 -1094 -37 -50 -135 -109 -181 -109 -49 0 -54 -8 -54 -81
l0 -69 375 0 375 0 0 69 c0 73 -5 81 -54 81 -13 0 -50 14 -84 31 -66 32 -109
79 -142 150 -19 43 -20 69 -20 907 0 760 2 862 15 855 13 -8 192 -271 1148
-1690 l271 -403 323 0 323 0 0 70 0 69 -37 6 c-111 18 -193 77 -240 174 l-28
56 0 975 0 975 23 46 c49 101 130 163 230 177 l47 7 3 73 3 72 -381 0 -380 0
0 -75 0 -75 39 0 c60 0 158 -55 203 -115 71 -92 68 -54 68 -992 0 -668 -3
-843 -12 -843 -7 1 -330 472 -718 1048 l-706 1047 -322 3 -322 2 0 -73z"/>
</g>
</svg>
